<?xml version="1.0" encoding="UTF-8" standalone="no"?><!DOCTYPE svg PUBLIC "-//W3C//DTD SVG 1.1//EN" "http://www.w3.org/Graphics/SVG/1.1/DTD/svg11.dtd"><svg width="100%" height="100%" viewBox="0 0 246 246" version="1.1" xmlns="http://www.w3.org/2000/svg" xmlns:xlink="http://www.w3.org/1999/xlink" xml:space="preserve" xmlns:serif="http://www.serif.com/" style="fill-rule:evenodd;clip-rule:evenodd;stroke-linejoin:round;stroke-miterlimit:2;"><g><rect x="49.2" y="65.52" width="116.16" height="86.64" style="fill:#fff;fill-opacity:0.51;"/><path d="M173.26,75.757l0,64.965c0,10.54 -8.557,19.097 -19.097,19.097l-93.525,0c-10.54,0 -19.097,-8.557 -19.097,-19.097l0,-64.965c0,-10.54 8.557,-19.097 19.097,-19.097l93.525,0c10.54,0 19.097,8.557 19.097,19.097Zm-11,0c0,-4.469 -3.628,-8.097 -8.097,-8.097l-93.525,0c-4.469,0 -8.097,3.628 -8.097,8.097l0,64.965c0,4.469 3.628,8.097 8.097,8.097l93.525,0c4.469,0 8.097,-3.628 8.097,-8.097l0,-64.965Z" style="fill:#fff;"/></g></svg>