<?xml version="1.0" encoding="UTF-8" standalone="no"?><!DOCTYPE svg PUBLIC "-//W3C//DTD SVG 1.1//EN" "http://www.w3.org/Graphics/SVG/1.1/DTD/svg11.dtd"><svg width="100%" height="100%" viewBox="0 0 246 246" version="1.1" xmlns="http://www.w3.org/2000/svg" xmlns:xlink="http://www.w3.org/1999/xlink" xml:space="preserve" xmlns:serif="http://www.serif.com/" style="fill-rule:evenodd;clip-rule:evenodd;stroke-linejoin:round;stroke-miterlimit:2;"><g><rect x="110.88" y="116.88" width="85.92" height="64.08" style="fill:#fff;fill-opacity:0.51;"/><path d="M204.7,126.465l0,44.429c0,10.048 -8.158,18.205 -18.205,18.205l-65.309,0c-10.048,0 -18.205,-8.158 -18.205,-18.205l0,-44.429c0,-10.048 8.158,-18.205 18.205,-18.205l65.309,0c10.048,0 18.205,8.158 18.205,18.205Zm-11,0c0,-3.977 -3.229,-7.205 -7.205,-7.205l-65.309,0c-3.977,0 -7.205,3.229 -7.205,7.205l0,44.429c0,3.977 3.229,7.205 7.205,7.205l65.309,0c3.977,0 7.205,-3.229 7.205,-7.205l0,-44.429Z" style="fill:#fff;"/></g></svg>